<svg xmlns="http://www.w3.org/2000/svg" viewBox="0 0 60 60"><defs><style>.ac48c23e-8b11-45d9-bbfe-6cc4f36fa867{fill:#fff;}</style></defs><g id="aabe15de-9aed-44a1-82d5-fda6416ff2dd" data-name="ui"><path class="ac48c23e-8b11-45d9-bbfe-6cc4f36fa867" d="M17.9055,20.0148a1.11206,1.11206,0,0,1-1.13623-1.13672,1.16742,1.16742,0,0,1,.32471-.832,1.0667,1.0667,0,0,1,.81152-.3457h4.26172a1.06849,1.06849,0,0,1,.812.3457,1.16954,1.16954,0,0,1,.3247.832,1.11206,1.11206,0,0,1-1.13672,1.13672Zm0,5.39648a1.065,1.065,0,0,1-.81152-.34375,1.17069,1.17069,0,0,1-.32471-.832,1.109,1.109,0,0,1,1.13623-1.13672h4.26172a1.109,1.109,0,0,1,1.13672,1.13672,1.17281,1.17281,0,0,1-.3247.832,1.0668,1.0668,0,0,1-.812.34375Zm0,5.35938a1.11206,1.11206,0,0,1-1.13623-1.13672,1.16742,1.16742,0,0,1,.32471-.832,1.06671,1.06671,0,0,1,.81152-.34571h4.26172a1.0685,1.0685,0,0,1,.812.34571,1.16954,1.16954,0,0,1,.3247.832,1.11206,1.11206,0,0,1-1.13672,1.13672ZM31.66527,13.966a5.31145,5.31145,0,0,1,4.66748,5.27734V31.4191a2.90613,2.90613,0,0,0,.60889,1.78515,7.33849,7.33849,0,0,1-.52783,9.88477A7.17909,7.17909,0,0,1,31.178,45.25894h-.04053a6.77,6.77,0,0,1-1.46143-.16211,7.15849,7.15849,0,0,1-3.83545-2.10938A7.41145,7.41145,0,0,1,23.83177,39.091a9.43884,9.43884,0,0,1-.08154-1.25977,7.30479,7.30479,0,0,1,1.66406-4.707,2.69811,2.69811,0,0,0,.56836-1.70507V19.12027A5.19886,5.19886,0,0,1,31.178,13.925,3.15553,3.15553,0,0,1,31.66527,13.966ZM34.425,41.7687a4.92248,4.92248,0,0,0,1.82666-3.9375v-.03906a4.946,4.946,0,0,0-1.0962-3.166,5.05428,5.05428,0,0,1-1.13623-3.24805V19.24331a2.96648,2.96648,0,0,0-.73046-1.99023,2.7203,2.7203,0,0,0-1.82666-.97266.89219.89219,0,0,0-.28418-.041h-.04053a2.68191,2.68191,0,0,0-1.90772.77148,2.74179,2.74179,0,0,0-.93359,2.10938V31.46011a4.891,4.891,0,0,1-1.0957,3.125,4.99917,4.99917,0,0,0-1.17725,3.28711,4.853,4.853,0,0,0,1.502,3.5918,5.15873,5.15873,0,0,0,6.89991.30468Zm-2.11036-9.66015v.082a4.27754,4.27754,0,0,0,1.25782,3.084,3.26111,3.26111,0,0,1,1.05566,2.43555v.041A3.46266,3.46266,0,0,1,31.178,41.20035a3.4836,3.4836,0,0,1-3.40918-2.75977,3.14965,3.14965,0,0,1-.08155-.68945,3.23839,3.23839,0,0,1,1.01465-2.43555,4.3945,4.3945,0,0,0,1.29883-3.166V31.4191a1.1357,1.1357,0,0,1,.34521-.832,1.12595,1.12595,0,0,1,1.62354,0,1.13761,1.13761,0,0,1,.34521.832Z"/></g></svg>