<svg xmlns="http://www.w3.org/2000/svg" viewBox="0 0 35 35"><defs><style>.b7800915-8487-4b85-81fc-defbb1674ebc{fill:#fff;}</style></defs><g id="bd0cd69a-abfc-4a4d-9f73-025f7267d2c4" data-name="ui"><path class="b7800915-8487-4b85-81fc-defbb1674ebc" d="M6.37049,9.41016A.94655.94655,0,0,1,6.09022,8.71a1.00546,1.00546,0,0,1,.28027-.7168.92075.92075,0,0,1,.69971-.29785h3.67529a.92227.92227,0,0,1,.69971.29785,1.00963,1.00963,0,0,1,.28027.7168.95782.95782,0,0,1-.98.98047H7.0702A.94541.94541,0,0,1,6.37049,9.41016ZM7.0702,14.3457a.92075.92075,0,0,1-.69971-.29785,1.00611,1.00611,0,0,1-.28027-.71777.95624.95624,0,0,1,.98-.97949h3.67529a.95624.95624,0,0,1,.98.97949,1.01028,1.01028,0,0,1-.28027.71777.92227.92227,0,0,1-.69971.29785Zm0,4.61914a.95624.95624,0,0,1-.98-.97949,1.00775,1.00775,0,0,1,.28027-.71777.92333.92333,0,0,1,.69971-.29688h3.67529a.92486.92486,0,0,1,.69971.29688,1.01193,1.01193,0,0,1,.28027.71777.95624.95624,0,0,1-.98.97949ZM18.93543,4.47559a4.57928,4.57928,0,0,1,4.0249,4.5498v10.5a2.50977,2.50977,0,0,0,.5249,1.54,6.32617,6.32617,0,0,1-.45507,8.52246A6.19151,6.19151,0,0,1,18.515,31.46h-.03467a5.82858,5.82858,0,0,1-1.26025-.13965A6.17668,6.17668,0,0,1,13.913,29.5a6.39089,6.39089,0,0,1-1.73291-3.35937,8.17774,8.17774,0,0,1-.06983-1.085,6.30461,6.30461,0,0,1,1.43506-4.06054,2.32546,2.32546,0,0,0,.48975-1.46973V8.91992a4.31569,4.31569,0,0,1,1.3125-3.167A4.316,4.316,0,0,1,18.515,4.44043,2.5442,2.5442,0,0,1,18.93543,4.47559ZM21.31531,28.4502A4.24573,4.24573,0,0,0,22.89,25.05566v-.03515A4.27135,4.27135,0,0,0,21.9452,22.29a4.358,4.358,0,0,1-.98-2.79981V9.02539a2.55439,2.55439,0,0,0-.62989-1.71484,2.34717,2.34717,0,0,0-1.57519-.83985.773.773,0,0,0-.24512-.03515h-.03467a2.31028,2.31028,0,0,0-1.645.665,2.36284,2.36284,0,0,0-.80517,1.81933V19.56055a4.21761,4.21761,0,0,1-.94483,2.69433,4.31313,4.31313,0,0,0-1.01513,2.835,4.18893,4.18893,0,0,0,1.29492,3.09766,4.45161,4.45161,0,0,0,5.95019.2627Z"/></g></svg>