<svg xmlns="http://www.w3.org/2000/svg" viewBox="0 0 35 35"><defs><style>.eb05bed5-4843-44b1-a78c-ee9a70c2e638{fill:#fff;}</style></defs><g id="aa652983-68ec-4f7a-9481-289ab1e185f1" data-name="ui"><path class="eb05bed5-4843-44b1-a78c-ee9a70c2e638" d="M5.005,13.87773H6.19492a1.0111,1.0111,0,0,1,.71777.28027.92461.92461,0,0,1,.29736.7002,1.01443,1.01443,0,0,1-1.01513,1.01465H5.005a.9217.9217,0,0,1-.70019-.29688A1.00777,1.00777,0,0,1,4.025,14.8582a.95706.95706,0,0,1,.98-.98047Zm3.77979-6.2998-.83984-.83985a.99233.99233,0,0,1-.27979-.73535.96484.96484,0,0,1,.27979-.68164.9218.9218,0,0,1,.70019-.29785A1.00691,1.00691,0,0,1,9.38,5.33769l.83985.84082a.89707.89707,0,0,1,.31494.69922A1.01611,1.01611,0,0,1,9.52011,7.89336,1.009,1.009,0,0,1,8.78476,7.57793ZM8.66269,24.69316a.9838.9838,0,0,1-.7002-.28027.91969.91969,0,0,1-.29736-.7002.94731.94731,0,0,1,.27979-.69922l.83984-.84082a1.008,1.008,0,0,1,.73535-.31445.97824.97824,0,0,1,.71729.29785.97273.97273,0,0,1-.01758,1.417L9.38,24.41289A1.04706,1.04706,0,0,1,8.66269,24.69316Zm5.12744,2.16992V23.46855a2.18438,2.18438,0,0,0-1.05029-1.85547,8.27651,8.27651,0,0,1-2.5376-2.92285,8.12081,8.12081,0,0,1-.92725-3.832A7.96137,7.96137,0,0,1,11.69,9.01347a7.93931,7.93931,0,0,1,5.82764-2.415,7.939,7.939,0,0,1,5.82715,2.415,7.95948,7.95948,0,0,1,2.415,5.84473,8.06148,8.06148,0,0,1-.92725,3.79785,8.29151,8.29151,0,0,1-2.5376,2.92188,2.33875,2.33875,0,0,0-1.085,1.99511v3.29a3.7043,3.7043,0,0,1-3.71,3.71,3.7043,3.7043,0,0,1-3.71-3.71Zm5.42481,0v-.97949H15.78476v.97949a1.71512,1.71512,0,0,0,3.43018,0ZM26.33749,5.02324a.96009.96009,0,0,1,.7002.29785.97936.97936,0,0,1,.29736.7168.9503.9503,0,0,1-.28027.70019l-.83984.83985a1.008,1.008,0,0,1-.73487.31543.92177.92177,0,0,1-.70019-.29786,1.00773,1.00773,0,0,1-.27979-.71777.94731.94731,0,0,1,.27979-.69922l.84033-.84082A.98708.98708,0,0,1,26.33749,5.02324Zm-.71728,19.38965-.84033-.83985a.99233.99233,0,0,1-.27979-.73535.96484.96484,0,0,1,.27979-.68164.9218.9218,0,0,1,.70019-.29785,1.00694,1.00694,0,0,1,.73487.31445l.83984.84082a.90891.90891,0,0,1,.28027.665,1.01609,1.01609,0,0,1-1.01513,1.01465A1.02428,1.02428,0,0,1,25.62021,24.41289Zm3.18457-10.53516h1.19043a1.01077,1.01077,0,0,1,.71728.28027.92458.92458,0,0,1,.29737.7002,1.01445,1.01445,0,0,1-1.01465,1.01465H28.80478a.92067.92067,0,0,1-.69971-.29688,1.00819,1.00819,0,0,1-.28027-.71777.95782.95782,0,0,1,.98-.98047Z"/></g></svg>