<svg xmlns="http://www.w3.org/2000/svg" viewBox="0 0 35 35"><defs><style>.a2b360b8-45e2-4120-beb5-93cecbad93a1{fill:#fff;}</style></defs><g id="fa1ae5b6-61e9-431d-8657-aa98308a6686" data-name="ui"><path class="a2b360b8-45e2-4120-beb5-93cecbad93a1" d="M5.00514,13.87753H6.19508a1.00994,1.00994,0,0,1,.71728.28027.92328.92328,0,0,1,.29786.7002,1.01528,1.01528,0,0,1-1.01514,1.01465H5.00514a.92094.92094,0,0,1-.7002-.29688,1.00819,1.00819,0,0,1-.28027-.71777.95784.95784,0,0,1,.98047-.98047Zm4.375-8.54.83984.84082a.89707.89707,0,0,1,.31494.69922A1.0161,1.0161,0,0,1,9.51979,7.89316a1.00874,1.00874,0,0,1-.73487-.31543l-.83984-.83985a.99236.99236,0,0,1-.27979-.73535.96488.96488,0,0,1,.27979-.68164A.92149.92149,0,0,1,8.64479,5.023,1.0072,1.0072,0,0,1,9.38014,5.33749Zm0,19.0752a1.00821,1.00821,0,0,1-.73535.31543.92149.92149,0,0,1-.69971-.29785,1.0078,1.0078,0,0,1-.27979-.71778.94737.94737,0,0,1,.27979-.69922l.83984-.84082a1.00772,1.00772,0,0,1,.73487-.31445.97852.97852,0,0,1,.71777.29785.97273.97273,0,0,1-.01758,1.417Zm4.41015,2.45019V23.46835A2.18546,2.18546,0,0,0,12.74,21.61288,8.27175,8.27175,0,0,1,10.2024,18.69a8.1212,8.1212,0,0,1-.92773-3.832,7.96323,7.96323,0,0,1,2.415-5.84473,7.94115,7.94115,0,0,1,5.82812-2.415,7.93976,7.93976,0,0,1,5.82715,2.415A7.95948,7.95948,0,0,1,25.76,14.858a8.0562,8.0562,0,0,1-.92773,3.79785,8.2854,8.2854,0,0,1-2.53711,2.92188,2.33761,2.33761,0,0,0-1.085,1.99511v3.29a3.70432,3.70432,0,0,1-3.71,3.71,3.7043,3.7043,0,0,1-3.71-3.71ZM11.30494,14.05331a5.32614,5.32614,0,0,0-.06982.80469,6.049,6.049,0,0,0,.71728,2.8877,6.36334,6.36334,0,0,0,1.94239,2.22265,4.0856,4.0856,0,0,1,1.89013,3.5v.41992H19.2151v-.31543a4.302,4.302,0,0,1,1.9248-3.63964A6.04819,6.04819,0,0,0,23.03,17.7457a6.1764,6.1764,0,0,0,.69971-2.8877,6.21418,6.21418,0,0,0-6.2295-6.23047c-.23339,0-.47851.0127-.73535.03516a6.26546,6.26546,0,0,0-5.46,5.39062ZM19.2151,26.86288v-.97949H15.78492v.97949a1.71512,1.71512,0,0,0,3.43018,0ZM26.33717,5.023a.95849.95849,0,0,1,.70019.29785.97789.97789,0,0,1,.29786.7168.95027.95027,0,0,1-.28028.70019l-.83984.83985a1.00821,1.00821,0,0,1-.73535.31543A.92147.92147,0,0,1,24.78,7.5953a1.00777,1.00777,0,0,1-.27979-.71777A.94735.94735,0,0,1,24.78,6.17831l.84033-.84082A.98683.98683,0,0,1,26.33717,5.023Zm-.7168,19.38965L24.78,23.57284a.99236.99236,0,0,1-.27979-.73535.96488.96488,0,0,1,.27979-.68164.92149.92149,0,0,1,.69971-.29785,1.0072,1.0072,0,0,1,.73535.31445l.83984.84082a.90888.90888,0,0,1,.28028.665A1.01695,1.01695,0,0,1,26.32008,24.693,1.0234,1.0234,0,0,1,25.62037,24.41269Zm4.375-10.53516a1.00961,1.00961,0,0,1,.7168.28027.9233.9233,0,0,1,.29785.7002,1.01527,1.01527,0,0,1-1.01465,1.01465H28.80494a.92092.92092,0,0,1-.70019-.29688A1.00982,1.00982,0,0,1,27.825,14.858a.95706.95706,0,0,1,.98-.98047Z"/></g></svg>