<svg xmlns="http://www.w3.org/2000/svg" viewBox="0 0 35 35"><defs><style>.bc450ed2-754d-438e-b78b-67f6130ae78d{fill:#fff;}</style></defs><g id="aeff45e6-e6f2-4c08-89af-27fab86ef43f" data-name="ui"><path class="bc450ed2-754d-438e-b78b-67f6130ae78d" d="M6.37047,9.41016A.94656.94656,0,0,1,6.09019,8.71a1.00547,1.00547,0,0,1,.28028-.7168.92075.92075,0,0,1,.6997-.29785h3.6753a.92223.92223,0,0,1,.6997.29785,1.0096,1.0096,0,0,1,.28028.7168.95783.95783,0,0,1-.98.98047H7.07017A.9454.9454,0,0,1,6.37047,9.41016Zm.6997,4.93554a.92075.92075,0,0,1-.6997-.29785,1.00612,1.00612,0,0,1-.28028-.71777.95625.95625,0,0,1,.98-.97949h3.6753a.95625.95625,0,0,1,.98.97949,1.01024,1.01024,0,0,1-.28028.71777.92223.92223,0,0,1-.6997.29785Zm0,4.61914a.95625.95625,0,0,1-.98-.97949,1.00776,1.00776,0,0,1,.28028-.71777.92333.92333,0,0,1,.6997-.29688h3.6753a.92482.92482,0,0,1,.6997.29688,1.01189,1.01189,0,0,1,.28028.71777.95625.95625,0,0,1-.98.97949ZM18.93541,4.47559a4.57928,4.57928,0,0,1,4.0249,4.5498v10.5a2.5097,2.5097,0,0,0,.5249,1.54,6.32616,6.32616,0,0,1-.45508,8.52246A6.19147,6.19147,0,0,1,18.515,31.46h-.03467a5.82874,5.82874,0,0,1-1.26026-.13965A6.17665,6.17665,0,0,1,13.913,29.5,6.39074,6.39074,0,0,1,12.18,26.14062a8.17748,8.17748,0,0,1-.06983-1.085,6.30461,6.30461,0,0,1,1.43506-4.06054,2.32546,2.32546,0,0,0,.48975-1.46973V8.91992a4.31569,4.31569,0,0,1,1.3125-3.167A4.316,4.316,0,0,1,18.515,4.44043,2.54429,2.54429,0,0,1,18.93541,4.47559ZM21.31529,28.4502A4.24576,4.24576,0,0,0,22.89,25.05566v-.03515A4.2713,4.2713,0,0,0,21.94517,22.29a4.358,4.358,0,0,1-.98-2.79981V9.02539a2.55438,2.55438,0,0,0-.62988-1.71484,2.34717,2.34717,0,0,0-1.5752-.83985.77288.77288,0,0,0-.24511-.03515h-.03467a2.31028,2.31028,0,0,0-1.645.665,2.36285,2.36285,0,0,0-.80518,1.81933V19.56055a4.21766,4.21766,0,0,1-.94482,2.69433,4.31309,4.31309,0,0,0-1.01514,2.835,4.18893,4.18893,0,0,0,1.29492,3.09766,4.45163,4.45163,0,0,0,5.9502.2627Zm-1.81982-8.33008v.07031a3.69126,3.69126,0,0,0,1.085,2.66016,2.80969,2.80969,0,0,1,.90966,2.09961v.03515A2.98753,2.98753,0,0,1,18.515,27.96a3.006,3.006,0,0,1-2.93994-2.37988,2.73189,2.73189,0,0,1-.06983-.59473,2.78894,2.78894,0,0,1,.875-2.09961,3.7934,3.7934,0,0,0,1.12012-2.73047V9.165a.97557.97557,0,0,1,.29736-.7168.97137.97137,0,0,1,1.3999,0,.97789.97789,0,0,1,.29786.7168Z"/></g></svg>