<svg xmlns="http://www.w3.org/2000/svg" viewBox="0 0 213.15856 266.4722"><defs><style>.a4dc1603-1495-4398-81e2-8fbc402623c7{fill:none;stroke:#fff;stroke-miterlimit:10;}</style></defs><g id="f95026d2-d838-46f8-9996-07fde97302fc" data-name="ui"><path class="a4dc1603-1495-4398-81e2-8fbc402623c7" d="M203.39982,245.79638H9.75874v5.95923a4.72209,4.72209,0,0,0,4.72208,4.72209H198.67774a4.72209,4.72209,0,0,0,4.72208-4.72209Zm0-10.68132H9.75874v5.95923a4.72209,4.72209,0,0,0,4.72208,4.72209H198.67774a4.72209,4.72209,0,0,0,4.72208-4.72209Zm0-10.68132H9.75874V230.393a4.72208,4.72208,0,0,0,4.72208,4.72208H198.67774a4.72208,4.72208,0,0,0,4.72208-4.72208Zm0-10.68132H9.75874v5.95924a4.72208,4.72208,0,0,0,4.72208,4.72208H198.67774a4.72208,4.72208,0,0,0,4.72208-4.72208Zm0-10.55667H9.75874V209.155a4.72208,4.72208,0,0,0,4.72208,4.72208H198.67774a4.72208,4.72208,0,0,0,4.72208-4.72208Zm0-10.68132H9.75874v5.95924a4.72208,4.72208,0,0,0,4.72208,4.72208H198.67774a4.72208,4.72208,0,0,0,4.72208-4.72208Zm0-10.68131H9.75874v5.95923a4.72208,4.72208,0,0,0,4.72208,4.72208H198.67774a4.72208,4.72208,0,0,0,4.72208-4.72208Zm0-10.68132H9.75874V177.111a4.72209,4.72209,0,0,0,4.72208,4.72209H198.67774a4.72209,4.72209,0,0,0,4.72208-4.72209Zm0-10.68132H9.75874v5.95923a4.72209,4.72209,0,0,0,4.72208,4.72209H198.67774a4.72209,4.72209,0,0,0,4.72208-4.72209Zm0-10.68132H9.75874v5.95924a4.72208,4.72208,0,0,0,4.72208,4.72208H198.67774a4.72208,4.72208,0,0,0,4.72208-4.72208Zm0-10.68132H9.75874v5.95924a4.72208,4.72208,0,0,0,4.72208,4.72208H198.67774a4.72208,4.72208,0,0,0,4.72208-4.72208Zm0-10.68132H9.75874v5.95924a4.72208,4.72208,0,0,0,4.72208,4.72208H198.67774a4.72208,4.72208,0,0,0,4.72208-4.72208Zm0-10.68132H9.75874v5.95924a4.72208,4.72208,0,0,0,4.72208,4.72208H198.67774a4.72208,4.72208,0,0,0,4.72208-4.72208Zm0-10.68131H9.75874v5.95923a4.72208,4.72208,0,0,0,4.72208,4.72208H198.67774a4.72208,4.72208,0,0,0,4.72208-4.72208Zm0-10.55667H9.75874v5.95923a4.72209,4.72209,0,0,0,4.72208,4.72209H198.67774a4.72209,4.72209,0,0,0,4.72208-4.72209Zm0-10.68132H9.75874v5.95923a4.72209,4.72209,0,0,0,4.72208,4.72209H198.67774a4.72209,4.72209,0,0,0,4.72208-4.72209Zm0-10.68132H9.75874v5.95924a4.72208,4.72208,0,0,0,4.72208,4.72208H198.67774a4.72208,4.72208,0,0,0,4.72208-4.72208Zm0-10.68132H9.75874V70.4225a4.72208,4.72208,0,0,0,4.72208,4.72208H198.67774a4.72208,4.72208,0,0,0,4.72208-4.72208Zm0-10.68132H9.75874v5.95924a4.72208,4.72208,0,0,0,4.72208,4.72208H198.67774a4.72208,4.72208,0,0,0,4.72208-4.72208Zm0-10.68132H9.75874v5.95924a4.72208,4.72208,0,0,0,4.72208,4.72208H198.67774a4.72208,4.72208,0,0,0,4.72208-4.72208Zm0-10.68131H9.75874v5.95923a4.72208,4.72208,0,0,0,4.72208,4.72208H198.67774a4.72208,4.72208,0,0,0,4.72208-4.72208Zm0-10.68132H9.75874v5.95923a4.72209,4.72209,0,0,0,4.72208,4.72209H198.67774a4.72209,4.72209,0,0,0,4.72208-4.72209Zm0-10.55667H9.75874v5.95923a4.72209,4.72209,0,0,0,4.72208,4.72209H198.67774a4.72209,4.72209,0,0,0,4.72208-4.72209Zm0-10.68132H9.75874V6.45924a4.72208,4.72208,0,0,0,4.72208,4.72208H198.67774a4.72208,4.72208,0,0,0,4.72208-4.72208ZM17.90432,0V256.4777m177.34992,0V0"/></g></svg>