<svg xmlns="http://www.w3.org/2000/svg" viewBox="0 0 60 60"><defs><style>.b7b20b24-6a43-4682-8b5f-de766bfe980a{fill:#3bc5a2;}</style></defs><g id="ab51eedc-bb37-420e-a410-69f10db669ad" data-name="ui"><path class="b7b20b24-6a43-4682-8b5f-de766bfe980a" d="M31.00024,48.875a1.38721,1.38721,0,0,1-2,0,1.3958,1.3958,0,0,1-.42529-1.02539v-32.25L16.17505,27.94922a1.29575,1.29575,0,0,1-.9502.40039A1.39527,1.39527,0,0,1,14.2,27.92578a1.3417,1.3417,0,0,1-.4248-.97656,1.359,1.359,0,0,1,.3999-1l14.7998-14.79883a1.39026,1.39026,0,0,1,2.0503,0L45.825,25.94922a1.36087,1.36087,0,0,1,.3999,1,1.31613,1.31613,0,0,1-.4248,1,1.439,1.439,0,0,1-1.0249.40039,1.46478,1.46478,0,0,1-1-.40039L31.42505,15.59961v32.25A1.39911,1.39911,0,0,1,31.00024,48.875Z"/></g></svg>