<svg xmlns="http://www.w3.org/2000/svg" viewBox="0 0 60 60"><defs><style>.ff06c588-9f2a-4caa-9939-4ec193ca66da{fill:#3bc5a2;}</style></defs><g id="be9eb486-2c19-41a2-b432-f27b82fbe10f" data-name="ui"><path class="ff06c588-9f2a-4caa-9939-4ec193ca66da" d="M26.375,10.80078h.0498a1.10539,1.10539,0,0,1,.8003.34961A1.15872,1.15872,0,0,1,27.5752,12V48a1.15872,1.15872,0,0,1-.3501.84961,1.10539,1.10539,0,0,1-.8003.34961H17.9751A1.19452,1.19452,0,0,1,16.7749,48V11.94922a1.03571,1.03571,0,0,1,.1001-.42383,1.2135,1.2135,0,0,1,.25-.375.88512.88512,0,0,1,.3999-.25,1.23065,1.23065,0,0,1,.4502-.09961Zm-1.2002,36V13.19922h-6V46.80078ZM42.6001,10.97461a1.604,1.604,0,0,1,.4497.42578.93514.93514,0,0,1,.1753.54883V48.05078a1.05153,1.05153,0,0,1-.1001.42383.94332.94332,0,0,1-.2998.375.6431.6431,0,0,1-.4004.25.99461.99461,0,0,1-.4497.09961H33.625A1.19452,1.19452,0,0,1,32.4248,48V12a1.19452,1.19452,0,0,1,1.2002-1.19922h8.3999A1.06674,1.06674,0,0,1,42.6001,10.97461ZM40.7749,46.80078V13.19922H34.8252V46.80078Z"/></g></svg>