<svg xmlns="http://www.w3.org/2000/svg" viewBox="0 0 60 60"><defs><style>.b458ee4e-aae9-4a52-bf2e-d502bfbf5ed7{fill:#3bc5a2;}</style></defs><g id="ea5c96a7-a6a3-405d-9b56-d0006e441221" data-name="ui"><path class="b458ee4e-aae9-4a52-bf2e-d502bfbf5ed7" d="M13.77515,33.05078A1.39535,1.39535,0,0,1,14.2,32.02539a1.36874,1.36874,0,0,1,1-.42578,1.41065,1.41065,0,0,1,1.0249.45117L28.575,44.40039v-32.25a1.45287,1.45287,0,0,1,1.4502-1.45117,1.31821,1.31821,0,0,1,1,.42578,1.44432,1.44432,0,0,1,.3999,1.02539v32.25L43.825,32.05078a1.41436,1.41436,0,0,1,2,2L31.02515,48.84961a1.64283,1.64283,0,0,1-.4751.32617,1.27562,1.27562,0,0,1-1.5249-.32617L14.17505,34.05078A1.359,1.359,0,0,1,13.77515,33.05078Z"/></g></svg>