<svg xmlns="http://www.w3.org/2000/svg" viewBox="0 0 60 60"><defs><style>.bec67a48-37fb-47a9-9053-b23bfbae2026{opacity:0.3;}</style></defs><g id="e66bc901-b629-403f-9c87-d95e1c2b7dc9" data-name="ui"><path class="bec67a48-37fb-47a9-9053-b23bfbae2026" d="M9.95972,41.58008A1.67494,1.67494,0,0,1,9.72,40.74023a1.60638,1.60638,0,0,1,.83984-1.5l7.02-4.08007A13.32866,13.32866,0,0,1,16.55981,30a13.12246,13.12246,0,0,1,1.56006-6.24023l-6.66015-4.62012A1.70914,1.70914,0,0,1,10.74,17.7002a1.60653,1.60653,0,0,1,.50977-1.16993,1.67651,1.67651,0,0,1,1.23-.51074,1.79957,1.79957,0,0,1,.96.30078L20.09985,21A12.76671,12.76671,0,0,1,28.26,16.74023V8.58008a1.74046,1.74046,0,0,1,1.73975-1.74024A1.585,1.585,0,0,1,31.2,7.34961a1.73279,1.73279,0,0,1,.48,1.23047q.05859,3.59911.06006,6a14.8125,14.8125,0,0,1-.06006,2.16015,12.84085,12.84085,0,0,1,8.93994,5.16016L47.7,17.82031a1.67747,1.67747,0,0,1,2.06983.26953,1.68824,1.68824,0,0,1-.33008,2.66993l-7.08008,4.08007A13.35005,13.35005,0,0,1,43.37964,30a13.18761,13.18761,0,0,1-1.5,6.17969l6.66015,4.68066a1.72443,1.72443,0,1,1-1.98,2.81934L39.89966,39a13.07472,13.07472,0,0,1-8.21973,4.32031v8.09961a1.73279,1.73279,0,0,1-.48,1.23047,1.585,1.585,0,0,1-1.20019.50977A1.74046,1.74046,0,0,1,28.26,51.41992V43.32031a13.00573,13.00573,0,0,1-8.93994-5.16015l-7.02,4.01953a1.68292,1.68292,0,0,1-.84033.24023A1.60487,1.60487,0,0,1,9.95972,41.58008ZM21.65991,24.47949A9.74578,9.74578,0,0,0,19.97974,30,9.89208,9.89208,0,0,0,21.24,34.86035c.03906.04.07959.08008.11963.11914a.45779.45779,0,0,0,.06006.18067,9.611,9.611,0,0,0,3.6001,3.50976,9.93622,9.93622,0,0,0,4.98,1.29,9.98681,9.98681,0,0,0,9.96-9.96,9.98681,9.98681,0,0,0-9.96-9.96,9.947,9.947,0,0,0-8.04,4.01953c-.04.081-.08057.16113-.11963.24023A.38729.38729,0,0,1,21.65991,24.47949Z"/></g></svg>