<svg xmlns="http://www.w3.org/2000/svg" viewBox="0 0 60 60"><defs><style>.a480f14f-fd10-406b-b967-6381f5db0d69{fill:#fff;opacity:0.3;}</style></defs><g id="bf059290-02c6-4407-8a52-be986a1ba7a2" data-name="ui"><path class="a480f14f-fd10-406b-b967-6381f5db0d69" d="M41.22021,11.49023A15.29311,15.29311,0,0,0,30,6.83984a15.29154,15.29154,0,0,0-11.22021,4.65039,15.25355,15.25355,0,0,0-4.64991,11.18946,15.60155,15.60155,0,0,0,1.8003,7.37988A15.913,15.913,0,0,0,20.8501,35.7002,4.43212,4.43212,0,0,1,22.9502,39.54v6.59961A7.068,7.068,0,0,0,30,53.16016a6.69359,6.69359,0,0,0,4.9502-2.07032,6.80736,6.80736,0,0,0,2.04-4.95019V39.71973A4.76132,4.76132,0,0,1,39.21,35.63965a16.23575,16.23575,0,0,0,4.85986-5.60938,15.42993,15.42993,0,0,0,1.8003-7.35058A15.2573,15.2573,0,0,0,41.22021,11.49023ZM33.56982,46.13965a3.59986,3.59986,0,1,1-7.1997,0V43.97949h7.1997Zm7.44-17.7002A12.47932,12.47932,0,0,1,37.23,32.82031a8.93087,8.93087,0,0,0-2.66992,3,7.95821,7.95821,0,0,0-.99024,3.89942v.83984h-7.1997V39.47949a7.59484,7.59484,0,0,0-.96-3.71972,8.51264,8.51264,0,0,0-2.58008-2.87989A12.427,12.427,0,0,1,18.96,28.46973a12.203,12.203,0,0,1-1.41016-5.79,12.38043,12.38043,0,0,1,10.98-12.29981,9.10488,9.10488,0,0,1,1.5-.12011A11.78818,11.78818,0,0,1,38.25,13.43945a11.98735,11.98735,0,0,1,4.14014,9.30078A12.11579,12.11579,0,0,1,41.00977,28.43945ZM28.83232,29.58359a1.99356,1.99356,0,0,1-1.41407-.58593l-3.644-3.64356A1.99979,1.99979,0,1,1,26.60234,22.526l2.23,2.22949,4.80713-4.80664A1.99978,1.99978,0,1,1,36.46757,22.777l-6.22119,6.22071A1.99353,1.99353,0,0,1,28.83232,29.58359Z"/></g></svg>