<svg xmlns="http://www.w3.org/2000/svg" viewBox="0 0 60 60"><defs><style>.a29e33bf-a9ce-4e36-8730-2be7b49440ba{fill:#fff;opacity:0.3;}</style></defs><g id="be56cb02-fcc2-44f6-8369-fe298f6175d3" data-name="ui"><path class="a29e33bf-a9ce-4e36-8730-2be7b49440ba" d="M50.04028,18.41992a1.79407,1.79407,0,0,1,.23975.90039,1.5568,1.5568,0,0,1-.83984,1.43946L45.72,22.91992l2.7002.90039a1.895,1.895,0,0,1,.8999.62989,1.67048,1.67048,0,0,1-1.31983,2.72949,1.58154,1.58154,0,0,1-.60009-.12012L41.7,25.25977,33.42017,30,41.7,34.74023l5.7002-1.80078a1.34575,1.34575,0,0,1,.60009-.11914A1.57973,1.57973,0,0,1,49.2,33.33008a1.65944,1.65944,0,0,1,.48,1.16992,1.75356,1.75356,0,0,1-.35986,1.08008,1.50743,1.50743,0,0,1-.8999.59961l-2.76026.90039,3.78028,2.16015a1.689,1.689,0,0,1,.33007,2.66993A1.67817,1.67817,0,0,1,47.7,42.17969l-4.02-2.2793.72022,3.29981V43.5A1.63965,1.63965,0,0,1,42.72,45.17969a1.75816,1.75816,0,0,1-1.08008-.35938,1.51062,1.51062,0,0,1-.59961-.90039L39.72,37.55957,31.74,33v8.58008l4.62012,4.13965a1.71284,1.71284,0,0,1,.6001,1.32031A1.743,1.743,0,0,1,35.22,48.78027a1.76121,1.76121,0,0,1-1.19971-.48047L31.74,46.2002v5.21972a1.74,1.74,0,0,1-3.48,0V46.2002l-2.27979,2.0996a1.75706,1.75706,0,0,1-1.20019.41993A1.64044,1.64044,0,0,1,23.09985,47.04,1.70961,1.70961,0,0,1,23.7,45.71973L28.26,41.58008V33l-7.91992,4.55957-1.37988,6.36035a1.518,1.518,0,0,1-.6001.90039,1.76222,1.76222,0,0,1-1.08008.35938A1.64042,1.64042,0,0,1,15.59985,43.5v-.2998l.72022-3.29981-4.02,2.2793a1.68121,1.68121,0,0,1-.83984.24023,1.72423,1.72423,0,0,1-1.23-.48047A1.57665,1.57665,0,0,1,9.72,40.74023a1.60591,1.60591,0,0,1,.84033-1.5l3.77979-2.16015-2.75977-.90039a1.58876,1.58876,0,0,1-1.08008-1.62012,1.64117,1.64117,0,0,1,1.67969-1.67969,1.357,1.357,0,0,1,.41992.05957l5.7002,1.80078L26.58032,30l-8.28027-4.74023-5.64014,1.7998a1.92728,1.92728,0,0,1-.48.06055,1.57826,1.57826,0,0,1-1.19971-.50977,1.65422,1.65422,0,0,1-.48-1.1709,1.58988,1.58988,0,0,1,1.08008-1.61914l2.75977-.90039q-3.72071-2.16065-3.77979-2.16015A1.55466,1.55466,0,0,1,9.72,19.32031a1.74127,1.74127,0,0,1,1.74024-1.74023,1.4782,1.4782,0,0,1,.83984.24023l4.02,2.2793-.72022-3.29981a.98244.98244,0,0,1-.05957-.2998,1.72787,1.72787,0,0,1,3.41993-.36035l1.37988,6.2998L28.26,27.05957V18.41992L23.7,14.28027a1.72889,1.72889,0,0,1-.54-1.26074,1.64119,1.64119,0,0,1,1.68018-1.67969,1.84814,1.84814,0,0,1,1.14013.36036L28.26,13.7998V8.58008a1.74,1.74,0,0,1,3.48,0V13.7998l2.28027-2.0996A1.76121,1.76121,0,0,1,35.22,11.21973,1.74128,1.74128,0,0,1,36.96021,12.96a1.71139,1.71139,0,0,1-.6001,1.32031L31.74,18.41992v8.63965l7.98-4.62012,1.32031-6.2998a1.69188,1.69188,0,0,1,.59961-1.04981A1.71694,1.71694,0,0,1,43.95,15.21a1.61242,1.61242,0,0,1,.51026,1.16992,1.34179,1.34179,0,0,1-.06006.41992l-.72022,3.29981,4.02-2.2793a1.67747,1.67747,0,0,1,.84033-.24023A1.60858,1.60858,0,0,1,50.04028,18.41992Z"/></g></svg>