<svg xmlns="http://www.w3.org/2000/svg" viewBox="0 0 60 60"><defs><style>.f1325864-2a3f-46b0-b8f0-59436b0ba8fe{fill:#3bc5a2;}</style></defs><g id="a1574f09-0d5b-4e32-99ab-5b2576ca1fe4" data-name="ui"><path class="f1325864-2a3f-46b0-b8f0-59436b0ba8fe" d="M18.38989,9.96a23.16094,23.16094,0,0,1,23.22022,0,23.03363,23.03363,0,0,1,8.42968,8.42969A22.67475,22.67475,0,0,1,53.13013,30a22.67475,22.67475,0,0,1-3.09034,11.61035A23.02626,23.02626,0,0,1,41.61011,50.04a23.16094,23.16094,0,0,1-23.22022,0,23.01169,23.01169,0,0,1-8.42968-8.42969A22.66517,22.66517,0,0,1,6.86987,30,22.66517,22.66517,0,0,1,9.96021,18.38965,23.019,23.019,0,0,1,18.38989,9.96Zm1.74024,37.13965A19.18009,19.18009,0,0,0,30.03,49.71a19.75865,19.75865,0,0,0,17.04-9.83984,19.8263,19.8263,0,0,0,0-19.77051,19.51122,19.51122,0,0,0-7.16992-7.19922,19.82226,19.82226,0,0,0-19.77,0A19.68588,19.68588,0,0,0,10.28979,30a19.68588,19.68588,0,0,0,9.84034,17.09961ZM37.40991,18.90039A12.88823,12.88823,0,0,1,41.76,23.63965,13.16814,13.16814,0,0,1,43.34985,30,12.93508,12.93508,0,0,1,39.45,39.4502a12.82155,12.82155,0,0,1-9.45019,3.92968,12.81815,12.81815,0,0,1-9.44971-3.92968A12.93125,12.93125,0,0,1,16.65015,30,13.15718,13.15718,0,0,1,18.24,23.63965a12.87178,12.87178,0,0,1,4.3501-4.73926,1.5926,1.5926,0,0,1,.96-.36035,1.74043,1.74043,0,0,1,1.73974,1.74023A1.58,1.58,0,0,1,24.51,21.71973,10.11349,10.11349,0,0,0,21.26978,25.29,9.93735,9.93735,0,0,0,22.98022,37.0498,9.56278,9.56278,0,0,0,29.99976,39.96a9.66612,9.66612,0,0,0,7.05029-2.91016A9.55336,9.55336,0,0,0,39.99,30a9.65381,9.65381,0,0,0-1.2002-4.71,10.12591,10.12591,0,0,0-3.23974-3.57031,1.69542,1.69542,0,0,1-.27-2.63965A1.6554,1.6554,0,0,1,36.45,18.59961,1.61029,1.61029,0,0,1,37.40991,18.90039Zm-6.17969,12.3291a1.57893,1.57893,0,0,1-1.20019.51074A1.743,1.743,0,0,1,28.28979,30V18.36035A1.74128,1.74128,0,0,1,30.03,16.62012a1.585,1.585,0,0,1,1.20019.50976,1.73489,1.73489,0,0,1,.48,1.23047V30A1.73094,1.73094,0,0,1,31.23022,31.22949Z"/></g></svg>