<svg xmlns="http://www.w3.org/2000/svg" viewBox="0 0 185 50.16954"><defs><style>.a0b4bf4d-32b2-4264-8191-7b23eceb0050{fill:#fff;opacity:0.3;}</style></defs><g id="acb37501-62a3-47cf-a47c-5d9731183964" data-name="ui"><path class="a0b4bf4d-32b2-4264-8191-7b23eceb0050" d="M83.605,37.391a8.3791,8.3791,0,0,1,4.21908,1.08114v3.20123a4.75868,4.75868,0,0,0-4.10833-2.01989,3.90892,3.90892,0,0,0-4.14525,4.0345,4.03774,4.03774,0,0,0,4.27182,4.2138,4.96412,4.96412,0,0,0,3.987-1.73509v2.81623a7.56622,7.56622,0,0,1-4.2349,1.18662c-3.929,0-6.81382-2.389-6.81382-6.40773C76.77006,40.0121,79.62321,37.391,83.605,37.391Zm9.79354,2.24666V42.417h3.30143c3.01136,0,4.66735,1.29209,4.66735,3.66532s-1.81947,3.8921-5.01015,3.8921H90.6772V37.58613h10.85359l-2.84788,2.05153Zm0,4.83085v3.43327h2.832c1.67709,0,2.542-.54848,2.542-1.71927s-.81218-1.71928-2.542-1.71928h-2.832Zm17.1822-4.83085,2.869-2.05153h-9.55622V49.9744h9.551V47.90178H106.6095V44.7322h5.82233V42.66485H106.6095V39.63766Zm16.043,2.37323c0,2.72658-2.07262,4.46168-5.66411,4.46168h-2.19919V49.9744h-2.72131V37.58613h5.19474C124.73045,37.58613,126.62375,39.28431,126.62375,42.01089Zm-2.73712.01582c0-1.52414-.95457-2.38905-2.70549-2.38905h-2.41542v4.76229h2.41542C122.93206,44.39995,123.88663,43.55085,123.88663,42.02671Zm9.31362,1.7351c0,4.01867,2.8848,6.40773,6.81382,6.40773a7.56624,7.56624,0,0,0,4.2349-1.18662h0V46.16668a4.9641,4.9641,0,0,1-3.987,1.7351,4.03492,4.03492,0,0,1-4.27181-4.21381,3.90892,3.90892,0,0,1,4.14525-4.03449,4.74579,4.74579,0,0,1,4.10832,2.01988V38.47214a8.37907,8.37907,0,0,0-4.21908-1.08114C136.04813,37.391,133.20025,40.0121,133.20025,43.76181Zm16.66009,2.6211V37.58613h-2.65275V49.9744h2.70549l6.31279-8.93917V49.9744h2.64747V37.58613h-2.7424Zm10.85358-6.72416h3.929V49.97968h2.72131V39.65875H171.404V37.58613H160.71394v2.07262Zm21.54368-2.07262-6.27588,8.79678V37.58613h-2.64747V49.9744h2.70549l6.31279-8.93917V49.9744H185V37.58613ZM103.7458,18.45788c-5.61665,9.42437-11.97691,7.30428-19.81912,3.78135-4.80975,3.41745-9.09739,6.71361-16.08,11.34933-4.48277,2.97445-15.194,9.19759-19.97734,10.17325-8.03208,1.62962-12.43046-3.83936-7.93715-9.83045,3.11685-4.15052,4.67263-6.84546-6.76635-9.48238-6.471-1.49251-22.27146-4.67264-29.12747-9.013-5.44788-3.44383-5.38987-9.43492.211-12.49375C10.10861-.25374,19.976-.317,26.71068.31584,50.69615,2.57305,76.16357,14.92968,80.19806,17.21853c1.54.87546,2.92172,1.66126,4.16634,2.368,5.8487-3.39635,10.51079-6.00691,11.824-6.77162,7.1988-4.20326,9.2767-3.37526,9.9623-2.53672C107.43222,11.84447,105.14864,16.10047,103.7458,18.45788ZM81.61146,21.195c-1.05477-.47992-2.13591-.96512-3.24342-1.43449C69.17044,15.85787,45.243,6.64446,26.49973,5.27326,18.33054,4.67731,12.07575,4.266,7.4875,6.44933c-4.43,2.10954-2.87425,5.142,1.0284,7.78947,3.77608,2.55782,18.66416,6.82436,25.08243,8.44871,9.10794,2.30467,13.79112,4.06086,8.839,12.52539-1.77729,3.03774-.73307,6.028,4.42476,4.78338,5.36878-1.29736,16.30674-7.54687,20.71568-10.32619C72.15017,26.79584,77.10759,23.82666,81.61146,21.195Zm21.90229-9.5193c-.99149-1.445-5.33713,1.34483-6.72416,2.17283-4.30346,2.57363-7.61017,4.73591-10.56879,6.78217,8.88643,4.90468,10.03085,4.31928,15.13594-2.81624h0C102.55391,16.14266,104.33647,12.87287,103.51375,11.67571Z"/></g></svg>