<svg xmlns="http://www.w3.org/2000/svg" viewBox="0 0 60 60"><defs><style>.a033279c-6019-46fd-8c37-fe061f4a470e{fill:#fff;}</style></defs><g id="a9ce61cb-3bc7-4a9a-ba64-e28420552e95" data-name="ui"><path class="a033279c-6019-46fd-8c37-fe061f4a470e" d="M22.3698,42.09292a9.855,9.855,0,0,1-3.08447-7.3457v-.08008a17.128,17.128,0,0,1,.75049-3.877,34.45319,34.45319,0,0,1,1.33984-3.67383,39.67907,39.67907,0,0,1,1.98877-3.83594q1.27808-2.21191,2.04932-3.4082.77051-1.19824,2.23242-3.34961.97412-1.5,1.37988-2.06836a1.12413,1.12413,0,0,1,1.90772,0q.48705.68849,1.583,2.3125,1.46118,2.15333,2.23242,3.32813.77052,1.17773,2.00928,3.30859a38.90376,38.90376,0,0,1,1.92774,3.69336,30.86467,30.86467,0,0,1,1.29882,3.5918,19.47482,19.47482,0,0,1,.771,3.89648v.16211a9.81416,9.81416,0,0,1-3.08447,7.30664,10.40036,10.40036,0,0,1-7.46826,3.20508h-.36524A9.955,9.955,0,0,1,22.3698,42.09292Zm7.18408-24.27148q-1.70435,2.59863-2.65869,4.12109-.95361,1.5205-2.3335,3.97657a25.843,25.843,0,0,0-2.09033,4.64843,18.45174,18.45174,0,0,0-.87256,4.22071,7.58808,7.58808,0,0,0,2.39454,5.68164,7.77671,7.77671,0,0,0,5.80419,2.47656.16493.16493,0,0,0,.12159-.041.655.655,0,0,0,.16259.041A8.061,8.061,0,0,0,36.048,40.42886a7.58985,7.58985,0,0,0,2.39453-5.68164,20.36084,20.36084,0,0,0-.89257-4.2207,25.368,25.368,0,0,0-2.00928-4.52539q-1.31982-2.376-2.25244-3.85547-.93458-1.48242-2.6792-4.08008c-.2168-.29688-.41944-.5957-.60889-.89258-.0542.08008-.12842.19727-.22314.3457A1.90791,1.90791,0,0,1,29.55388,17.82144Z"/></g></svg>